<svg width="93" height="97" viewBox="0 0 93 97" fill="none" xmlns="http://www.w3.org/2000/svg">
<path d="M51.0054 3.56C49.3951 3.32237 47.7724 3.17879 46.1454 3.13C44.5145 3.16832 42.8878 3.31195 41.2754 3.56C41.0756 3.58944 40.8717 3.55003 40.6972 3.44827C40.5228 3.3465 40.3881 3.18842 40.3154 3V2.92C40.2658 2.79716 40.2436 2.66496 40.2503 2.53265C40.2571 2.40034 40.2927 2.2711 40.3546 2.15396C40.4165 2.03682 40.5032 1.93461 40.6087 1.85448C40.7142 1.77434 40.8359 1.71821 40.9654 1.69C42.6826 1.36537 44.4278 1.21129 46.1754 1.23C47.927 1.19081 49.6776 1.34508 51.3954 1.69C51.5341 1.71635 51.6645 1.77531 51.7759 1.86202C51.8873 1.94872 51.9765 2.06069 52.0361 2.18867C52.0957 2.31665 52.124 2.45697 52.1187 2.59804C52.1133 2.73912 52.0745 2.87689 52.0054 3C51.9238 3.19054 51.7815 3.34876 51.6006 3.45004C51.4197 3.55132 51.2105 3.58998 51.0054 3.56ZM2.48538 9.66H0.835381C0.711899 9.66068 0.590085 9.68857 0.478614 9.7417C0.367142 9.79483 0.268754 9.87187 0.190455 9.96736C0.112156 10.0628 0.055873 10.1744 0.0256125 10.2941C-0.00464796 10.4139 -0.00814127 10.5388 0.0153814 10.66L0.235381 12C0.26432 12.1432 0.327698 12.2773 0.420039 12.3905C0.512381 12.5038 0.630909 12.5928 0.765381 12.65L2.19538 13.17C2.32052 13.2173 2.45535 13.2333 2.58809 13.2166C2.72084 13.1998 2.84747 13.1509 2.95694 13.0739C3.06641 12.997 3.1554 12.8945 3.21613 12.7753C3.27687 12.656 3.30751 12.5238 3.30538 12.39V10.49C3.30285 10.2724 3.21596 10.0642 3.063 9.9094C2.91004 9.75458 2.70296 9.66517 2.48538 9.66ZM41.2154 9.21C41.216 9.71242 41.1759 10.2141 41.0954 10.71C41.0954 15.18 33.4354 27.25 24.8754 31.01C22.9706 31.8834 20.9179 32.3889 18.8254 32.5C17.1182 32.5 15.4277 32.1637 13.8505 31.5104C12.2733 30.8571 10.8402 29.8995 9.63299 28.6924C7.19502 26.2544 5.82538 22.9478 5.82538 19.5L5.25538 14.29C5.21872 13.861 5.20537 13.4304 5.21538 13C5.21913 9.82356 6.42248 6.76575 8.58453 4.43867C10.7466 2.11159 13.7078 0.68697 16.8754 0.45L31.4954 0H32.0054C34.4472 0.00264697 36.7883 0.973833 38.5149 2.70047C40.2415 4.42711 41.2127 6.76817 41.2154 9.21ZM91.5054 9.66H89.8554C89.6379 9.66 89.4293 9.74639 89.2756 9.90017C89.1218 10.054 89.0354 10.2625 89.0354 10.48V12.38C89.0356 12.513 89.0678 12.6439 89.1292 12.7619C89.1905 12.8798 89.2794 12.9813 89.3882 13.0578C89.497 13.1342 89.6225 13.1834 89.7543 13.2012C89.8861 13.219 90.0202 13.2049 90.1454 13.16L91.5754 12.63C91.712 12.5806 91.8326 12.4949 91.9242 12.3822C92.0158 12.2694 92.075 12.1338 92.0954 11.99L92.3254 10.61C92.3426 10.4922 92.3343 10.3721 92.301 10.2578C92.2677 10.1436 92.2102 10.0378 92.1324 9.94767C92.0546 9.85756 91.9584 9.78524 91.8502 9.7356C91.742 9.68597 91.6244 9.66018 91.5054 9.66ZM75.3254 0.45L60.6954 0H60.1954C58.8616 0.00149269 57.544 0.292674 56.3338 0.853408C55.1236 1.41414 54.0496 2.23105 53.1861 3.24763C52.3226 4.26422 51.6903 5.45622 51.3327 6.74121C50.9752 8.02621 50.901 9.37353 51.1154 10.69C51.1154 15.16 58.7654 27.22 67.3354 30.99C69.2247 31.8573 71.2598 32.3627 73.3354 32.48C76.7832 32.48 80.0898 31.1104 82.5278 28.6724C84.9657 26.2344 86.3354 22.9278 86.3354 19.48L86.9054 14.26C86.9616 13.8421 86.995 13.4215 87.0054 13C86.9896 9.82377 85.7796 6.7697 83.6156 4.44459C81.4517 2.11949 78.4923 0.693517 75.3254 0.45ZM85.5654 66.93C78.9154 63.26 78.9654 58.4 77.5654 54.2C85.1054 52.6 87.7854 48.96 88.5654 45.74C88.5654 45.74 90.4754 39.16 86.0554 38.03C89.0554 41.36 86.3454 45.03 84.5354 45.98C82.1254 47.19 78.0954 46.85 74.0854 43.07C66.2054 35.65 60.5254 30.8 51.3554 34.17C50.1472 34.6107 49.0498 35.3096 48.1396 36.2181C47.2294 37.1266 46.5283 38.2227 46.0854 39.43C45.6424 38.2227 44.9414 37.1266 44.0312 36.2181C43.121 35.3096 42.0235 34.6107 40.8154 34.17C31.6554 30.78 25.9654 35.64 18.0854 43.07C14.0854 46.85 10.0854 47.16 7.64538 45.96C5.92538 45.05 3.19538 41.37 6.17538 38C2.32538 40.43 3.64538 45.68 3.64538 45.7C4.43538 48.7 6.90538 52.18 13.5554 53.9C12.3754 57.66 11.2454 62.75 4.15538 67.41C5.08024 67.8227 6.11383 67.9249 7.10161 67.7014C8.0894 67.4779 8.97829 66.9407 9.63538 66.17C9.63538 66.17 7.20538 79.36 17.0054 86.34L16.4254 80.34C16.4254 80.34 20.2354 90.29 34.3454 93.94C33.8754 93.79 32.0554 90.62 30.7954 88.32C32.4354 90.62 37.5154 93.69 39.4154 94.54C41.3154 95.39 42.3054 95.73 44.8454 96.6C46.7349 96.1629 48.6007 95.6289 50.4354 95C54.3004 93.9889 57.7326 91.75 60.2154 88.62C58.9454 90.92 57.1354 94.09 56.6554 94.24C70.7754 90.6 74.5854 80.64 74.5854 80.64L74.0054 86.64C84.6654 76.39 80.1154 65.64 80.1154 65.64C80.7603 66.418 81.641 66.9648 82.6244 67.1975C83.6077 67.4303 84.6402 67.3364 85.5654 66.93ZM68.8654 63.85C60.6554 67.95 52.2354 59.94 52.4354 57.59C52.4354 57.59 51.2054 58.86 45.8754 58.77C43.3856 58.8017 40.9091 58.4025 38.5554 57.59C38.7554 59.94 30.3454 67.95 22.1254 63.85C16.9254 61.25 17.4554 57.31 18.5354 54.78C20.9952 55.0056 23.467 55.0724 25.9354 54.98C38.4454 54.56 44.4554 50.05 46.1454 45.29C47.8354 50.05 53.8554 54.56 66.3554 54.98C68.4022 55.0584 70.4517 55.0284 72.4954 54.89C73.5654 57.42 74.0054 61.27 68.8654 63.85Z" fill="white"/>
</svg>
